<svg xmlns="http://www.w3.org/2000/svg" width="544.244" height="517.973" viewBox="0 0 544.244 517.973">
  <path id="Path" d="M502.841,510.866c-.41.741-1.148,1.008-1.741,1.559a6.98,6.98,0,0,1-2.726,1.343c-.76.244-.695.341-1.325.062a7.4,7.4,0,0,0-2.187-.509c-.8,0-2.862.358-3.342-.309-.892-1.239-1.577.005-2.5-.232a13.424,13.424,0,0,1-1.849-1c-.506-.237-.5.17-.955.17-.42,0-.783-.359-1.247-.37l-3.82-.093c-.652-.016-1.54.858-2.326.509-1.117-.5-1.005.355-1.925.355a6.479,6.479,0,0,0-.585-2.918c-.18-.12-.245-1.142-.416-1.142v-.046a22.4,22.4,0,0,1-4.467-1.405c-.139,0-.137-.434-.293-.494a3,3,0,0,1-.585-.262c-.445-.273-.492.6-1.109-.092-.948-1.06-2.7-.045-2.7-1.807,0-.961-.339-1.858-.339-2.81,0-1.1-.57-2.2-.57-3.242-.1-.016-.364-.722-.832-.818s-1,.214-.955-.386c0-.614.335-3.476-.262-3.551,0-.041-.219-.293-.277-.293l-1.433-1.158c-.008-.054-.008-.046-.062-.046-.014-.049-.031-.036-.031-.093l-.015-.015c-.065,0-.142-.381-.169-.463a2.356,2.356,0,0,0-.262-.54l-.786-1.127-1.34-2.208c-.077-.015-.084-.141-.139-.154-.2-.991-2.782-1.61-2.834-1.976.032-.011.031-.056.031-.093.248,0,.906-.915,1.047-1.189.181-.363-1.291-1.781-1.633-1.9-.218-.076.307-.573.354-.664.225-.425-.644-.3-.709-.494-.191,0,0-.762,0-.926,0-.7-.186-.475-.616-.772a3.517,3.517,0,0,1-.924-1.837c-.02-.384.149-1.194-.323-1.359a6.444,6.444,0,0,0-2.064-.541c-.062-.372.308-1.087.308-1.575-.233,0-1.053-.541-1.078-.772-.129-.018-.308-.315-.308-.448l-.385-1.451c0-.548-.2-1-.154-1.606.028-.407.328-.865.092-1.235-.063-.1-.449-.738-.246-.772.051-.358.517-.215.293-.679-.144-.3-.1-.617-.277-.865-.319-.443-.123-1.383-.123-1.837.481-.12.2-.033.708,0,.27.018.317.09.385-.247.111-.544-.169-1.022-.169-1.5-.146,0-.92.211-.955,0-.388,0,.031-2.171.031-2.5l-.549-.766a3.42,3.42,0,0,0-.559-.892c-.186-.227-.33-.522-.513-.771a18.3,18.3,0,0,0-1.54-1.754c-.575-.767-.56-1.928-1.328-2.631-.486-.445-.731-1.6-1.026-2.193-.855-1.713-.2-2.416-.2-4.189a6.327,6.327,0,0,0-.649-2.707,4.285,4.285,0,0,1-.77-1.089,6.746,6.746,0,0,1-.03-2.223c.853-.285.118-1.8-.559-1.966-.048-.191-.313-1.416-.121-1.512,0-.283.082-.31.03-.62-.7-.1-.8-1.1-.86-1.724-.081-.842-.619-1.774-.619-2.556l-.015-.015h-.045c-.01-.031-.552-.008-.649-.03l-.8-.181a15.92,15.92,0,0,1-2.113-.681,6.7,6.7,0,0,0-.83-.3c0-.031.01-.067-.015-.076,0-1.185-.707-1,.226-1.936a3.411,3.411,0,0,0,.559-2.344c0-.606.272-1.138.272-1.694,0-.619-.568-.948-.921-1.406a5.048,5.048,0,0,1-1.041-2.223c-.749-.187-.392-.97-.392-1.482a8.953,8.953,0,0,0-.634-2.087c-.082-.988-.74-1.763-.74-2.858a9.794,9.794,0,0,0-.287-2.8,2.151,2.151,0,0,1-.483-1.663c0-1.054-.539-1.641-.076-2.752a4.362,4.362,0,0,0-.136-3.357,13.857,13.857,0,0,1-.921-2.616,21,21,0,0,0-1.192-2.344c-.542-1.151-1.6-3.689-2.461-4.552a12.384,12.384,0,0,1-1.736-2.178.451.451,0,0,1-.136-.181c-.064-.016-.042-.09-.106-.106-.008-.025-.022-.021-.03-.046-.031,0-.067-.01-.076.015-.492,0-.919.787-1.374.635a.8.8,0,0,0-1.253-.7c-.268.168-.465-1.024-.574-1.255a18.241,18.241,0,0,0-1.359-2.949c-.519-.981-1.345-1.625-1.6-2.707-.468-1.984-.391-4.217-.77-6.245,0-2.418,1.773-3.614,2.959-5.535.088-.142,1.046-1.367.649-1.467,0-.04,0-.037-.045-.045-.091-.272-2.346-.726-2.747-.862-1.195-.4-1.586-1.228-2.279-2.162a17.042,17.042,0,0,1-1.434-1.769c-1.6-1.6-2.595-4.423-5.419-4.552-.877-.04-1.571-.049-1.872-.953-.4-.079-1.091.214-1.419-.015-.179-.124-.3-1.1-.362-1.119-.005-.03-.009-.052-.045-.06a15.563,15.563,0,0,1-3.638,1.663c-1.417.068-1.9-.542-1.9-1.905,0-1.617-.023-.884-1.268-.6-1.325.3-2.832.242-4.091.65-.752,0-.829-.343-1.54-.166a5.571,5.571,0,0,0-.015-1.24c-.09-.473-.8-1.035-.8-1.074-.053-.461.376-.059.075-.65-.921-1.808-.756-1.558-2.687-1.558-.951,0-1.387.867-2.234.544-1.015-.387-.532-.136-1.389.106-.513.145-.242,3.994-.543,4.718-.438,1.05-.386.45-1.283.68a17.065,17.065,0,0,0-2.411.32l-.374.1-.154.409c-.145.34.219.831-.431.88-.609.046-.736.219-1.078.695-.375.521-.009,2.676-.308,2.825-.835.417-1,.093-1,1.266a9.314,9.314,0,0,0,.955,2.795c-1.414,0-4.746.061-5.669-1.019a1.777,1.777,0,0,0-1.864-.633,8.355,8.355,0,0,0-2.437.786l-.279,1.059-5.873,20.957-.068.25c-3.085.769-6.078,3.088-8.519,5.1-.216.177-.382,1.492-.616,1.884l-1.787,2.98c0,.5.317.66.478,1.019a3.407,3.407,0,0,1,.185,1.328,7.049,7.049,0,0,1-.323,2.918c-.269.508.009.978.139,1.5l-1.232.262c-.12.026.011.957-.031,1.173a19.408,19.408,0,0,0-.031,2.579c-.025.436-.631,1.072-.631,1.235.166.055.365.247.585.247a1.69,1.69,0,0,1-.262.9c0,.68-.3.4.739.649.418.1.143.944.123,1.343-.076,1.5.577,1.7.862,2.841a22.517,22.517,0,0,0-8.549-.108c-1,.224.278,1.029-.647,1.235a8.443,8.443,0,0,0-3.8,1.652c-1.714,1.54-3.731.247-5.576.834a5.923,5.923,0,0,1-2.7.355c-.465-.776-.4-1.779-1.032-2.563-.621-.769-1.8-.233-1.232-1.312a14.448,14.448,0,0,0,.755-1.343c.438-1.152-.349-.38-1.217-.679-.422-.146-.4-.494-.8-.494-.6,0-.836.183-1.479-.015s-.73-.49-1.109-.973c-.308-.393-.778.747-1.217.324a.741.741,0,0,1-.185-.232,2.073,2.073,0,0,0-.339-.432,1.756,1.756,0,0,1-.37-.679c-.257-.193-.988.211-1.109-.247-.055-.208-.127-.756-.277-.849-.219-.135-.417-.051-.493-.355-.114-.458.062-.525-.493-.525-.634,0-.794-.5-.893-1.035.231-.463-.276-1.378.216-1.775a7.883,7.883,0,0,0,1.371-1.081c.577-.731-1.3-1.166-1.787-1.9-.556-.835-1.927-.664-2.819-.664a6.77,6.77,0,0,1,.2-1.328c.012-.049-.023-.265.015-.278v-.046c.031,0,.023.008.031-.015a5.86,5.86,0,0,0,1.725-.664,8.38,8.38,0,0,1,2.526-.525c.931-.119,3.771.293,4.344-.262l1.4-1.359c.107.323.731,2.078,1.063,2.115.415.047,3-.017,3.1-.262.154-.4.019-1.606.154-2.208,1.331-.833.552-1.1.986-2.162.38-.929,1.864-.47,2.3-1.606a6.44,6.44,0,0,0-1.279-5.342c-.318-.294-.806-.45-.924-.927-.475,0-.779.969-1.233.247A5.11,5.11,0,0,1,332,391.7c-.262-.052-1.153.606-1.617.633-.528.031-.723-.3-1.078.216a5.364,5.364,0,0,1-3.173,1.683c-1.128-.376-1.585.773-2.7.479-1.173-.311-1.688.442-2,1.389a.451.451,0,0,1-.339-.046c0-.271-.194-1.4-.663-.88-.254.284-.6,1.433-.893,1.359,0-1.64-2.678-.451-3.42-.278l-6.208,1.451-3.99.309a8,8,0,0,0-4.159,1.39c-.9.491-.622,1.821-1.279,2.084-1.847.74-3.872,3.554-5.746,1.837-.971-.889-2.258-2.024-3.651-2.146-1.919-.168-5.617.093-6.855-1.1-.9-2.164-1.814-3.911-1.925-6.361-.012-.255.085-1.681-.17-1.745-.083-.335-.982-1.232-1.2-1.7a6.26,6.26,0,0,0-1.417-1.945c-.021-.149-.269-.423-.324-.617-.92-1.054-.656-2.556-2.033-3.582-1.243-.927-3.62-1.021-5.129-1.822a10.112,10.112,0,0,0-2.388-1.2c-.394,1.185-5.844,3.211-7.024,3.211a2.437,2.437,0,0,0,.138,1.4c-.185.046-1.171.293-1.171.4,0,.172.185.818.323.865a2.931,2.931,0,0,0-3.1,2.192c-.186.747-2.315,1.3-2.65.432-.072-.188-1.821.271-2.4.17-.731-.127-2.569-1.782-2.68-1.729a6.312,6.312,0,0,1-2.634-.124l-.092,1.035-1.371.139c0,1.219-.076,2.82.631,3.845a33.582,33.582,0,0,0,2.234,3.289,14.969,14.969,0,0,1,1.432,1.776c.133.019.293.307.339.417l-8.364,2.486-.585-.247-8.41,1.421-6.116,1.1a5.759,5.759,0,0,0-.878,1.652c-.724,0-1.81-1.7-2.619-1.7-1.97,0-2.162.083-3.435-1.235-.566-.586-1.9-.218-2.649-.417-1.086-.288-.979-1.312-.77-2.192.327-1.378-.36-2.46.4-3.829.22-.395,0-.72.108-1.1a13.485,13.485,0,0,1-.123-2.486c.139-.724-.5-1.683-.062-2.239.3-.386.786-.142.786-.9,0-.975-.381-.922-.816-1.451-.572-.7.681-1.68.092-2.347-.366-.414-.879-.672-1.263-1.127a6.44,6.44,0,0,1-.832-1.729c-.983-.654-1.389-1.622-2.372-2.177a2.988,2.988,0,0,1-.647-1.173c-.451-1.479-2.051-2.386-2.68-3.814a11.986,11.986,0,0,1-.862-2.439,4.322,4.322,0,0,0-.139-1.189c-.184-.741.156-.7.447-1.281a1.017,1.017,0,0,0-.693-1.374l-6.362-7.226-6.007,6.037-9.72,1.621-1.217-1.837-11.615-.818c-1,.251-2.12,1.307-3.034,1.837-1.075.623-.143,1.418-.832,2.038-.21.189-1.221.935-1.048,1.25a3.808,3.808,0,0,1,.6,2.239,3.11,3.11,0,0,0,.585,1.467c1.031,1.182,1.566-.12.878,1.868-.531,1.536.854,1.164.924,2.1s.794.912.986,1.467a9.761,9.761,0,0,1,.524,2.347c.127,1.8,2.228.974,2.6,2.393a8.315,8.315,0,0,1,.4,2.131l.062,1.019c.036.009.021.023.046.031.039.158.752.523.924.787l.786,1.2c0,.07-.84.649-2.357,1.992l-3.281,2.9-4.9,5.882c0,.674-4,2.847-4.637,3.3a16.135,16.135,0,0,0-3.789,3.721c-.357.6-1.507,1.484-2.234,1.313l-3.563-.842-.482-.255a7.415,7.415,0,0,0-1.9-.533,19.55,19.55,0,0,1-2.01-.432,5.522,5.522,0,0,1-.879-.5l-3.219-3.026-3.928-2.857-9.7,1.05-15.927,4.624-3.7,1.081-3.2,1.359a9.078,9.078,0,0,0-1.7.818,1.2,1.2,0,0,1-.139.039c-.036.024-.086.022-.123.046a.173.173,0,0,0-.062.015l-.092-.023c-.978.108-2.788,1.289-3.666,1.768a15.545,15.545,0,0,1-2.98,1.444c-.259,0-1.259-.5-1.656-.595l-2.834-.679a2.47,2.47,0,0,1-.8-.224,1.9,1.9,0,0,0-.662-.324c-.611-.117-.96.02-1.24-.672a3.471,3.471,0,0,0-.385-.872,5.436,5.436,0,0,0-1.625.1c-.574.071-.7.315-1.117.687h0a3.786,3.786,0,0,1-.955-1.529c-.165-.809-.532-.438-1.04-.811a6.362,6.362,0,0,1-.84-.595c-.265-.282-.121-.651-.416-.965-.394-.421-.065-1.125-.739-1-.352.067-1.021-1.143-1.132-1.49-.508-.8-.548-1.665-1.271-2.339-.265-.247-.445.214-.678.286-.467.143-.307-.916-.3-1.1.027-.72-.35-1.023-.755-1.536a1.793,1.793,0,0,1-.216-.865c-.057-.329-.411-.5-.485-.818-.1-.261.417-.452.431-.641.015-.209-.316-.182-.27-.471.078-.487-.539-.877.1-1.2,1.994-1-.339-2.052-.339-3.258,0-.986,1.281-.076,1.086-1.119.037-.6-.2-1.168.108-1.745s1.721.017,1.4-.95l-.462-1.4c-.122-.367-.289-1.335.062-1.637.242-.208.627-.182.762-.517.119-.719-.3-.529-.555-1.05-.269-.542.078-.839-.77-.811-2.008.066-1-.857-.193-1.714.728-.773-.884-.319-.716-1.127.058-.281.248-.679-.138-.834-.438-.175-.7.078-1-.34l-.277-.8h0a15.194,15.194,0,0,1,1.809-.842c1.134-.438,5.184-2.5,5.992-3.829.573-.938,1.658-1.485,2.3-2.409,1.082-1.569,2.512-2.825,3.374-4.555.652-1.309.5-3.7.663-5.188a9.571,9.571,0,0,1,.4-1.374,3.078,3.078,0,0,1,.555-1.019,6.494,6.494,0,0,0,1.448-2.918l.277-.83c.529-.755.852-1.408,1.463-2.154a13.061,13.061,0,0,0,2.311-4.091c.583-1.52.658-3.557,1.679-4.925.833-.477,1.386-2.854,1.818-3.721,1-2.007.581-4.574,2.788-6.021,1.987-1.3,4.228-1.923,5.93-3.628.682-.154,1.621-1.094,2.326-1.421a8.761,8.761,0,0,1,5.915,0c2.828.945,4.991,1.725,6.008-1.745a6.864,6.864,0,0,1,2.095-3.705c.529-.452,2.1-2.787,2.4-2.887,1.73-.089.989-1.012.57-1.853-1.13-2.269-1.126-3.037-.6-5.558a17.087,17.087,0,0,1,1.972-5.018c1.333-2.04,2.171-4.2,3.774-6.114,1.289-1.54,2.742-2.67,2.742-4.833h.046l1.956,2.007,2.265,2.115c.67.594,1.38,1.018,2.049,1.56.58.469.83.506,1.078,1.25.363,1.091,1.361.952,2.449,1.081a29.8,29.8,0,0,0,3.266.309h.513c1.091,0,2.192.36,3.3.463l7.116.664,2.65.077c.58.017,1.1-.324,1.6-.324l.015.015.986,3.211c.493,1.606-1.047,2.312-1.2,3.667a27.11,27.11,0,0,0-.128,3.96c0,.725.277,1.444.277,2.224a6.171,6.171,0,0,0,.616,2.022,1.731,1.731,0,0,1,.293.834c1.259,0,4.3-2,5.761-2.44l5.761-1.745,3.543-.695c1.2-.235,2.387-.927,3.62-1.235,1.21-.3,1.068-1.349,2.187-2.192.193-.17.2-.589.37-.664.516-.231.927-.75,1.51-.973.408-.156.728-.437,1.14-.6a8.3,8.3,0,0,0,1.772-.865c.071-.055.094-.077.177-.077a3.143,3.143,0,0,1,.208.833,6.69,6.69,0,0,0,.57-.37,10.633,10.633,0,0,0,1.132-.656,3.821,3.821,0,0,0-.062-.749c0-.436.583-.688.909-.973a12.239,12.239,0,0,0,1.194-1.127c.4-1.975,1.1-1.151,2.742-1.806l3.142-1.251c1.754-.7,6.593-3.28,6.593-5.558-.434-.145-1.589-2.756-1.756-3.258-.108-.866-1.7-2.345-1.048-2.887l4.5-3.767c2.088-1.749,2.126-2.979,2.126-5.651-.306-.594-1.756-2.543-1.756-3.042,1.453,0,2.482-3.443,4.452-3.443a.187.187,0,0,0,.015-.062l.046-.4a5.118,5.118,0,0,1,2.665-3.381,18.982,18.982,0,0,0,2.234-1.081c.782-.626.661-1.154,1.078-1.992-.043-.671.654-1.992,1.371-1.992.011-.043.035-.018.046-.062.317-.079.293-2.246.508-2.594a2.4,2.4,0,0,0,.185-1.127c0-.8.852-.767.108-1.637-.676-.79.816-1.707.816-2.64,0-.465.416-.907.416-1.513a5.939,5.939,0,0,1,0-1.822c-.022.089-.015.092-.015.093.025-.009.122-.569.169-.664a8.149,8.149,0,0,0,.57-1.575c.152-.614-.079-1.4.046-2.053a5.151,5.151,0,0,0,.077-.88c0-.237-.277-.482-.277-.757l-.092-.583-2.542-9.673a6.6,6.6,0,0,1-.262-1.328l-.015-.015-4.375.046-.015.015c0,.7-.323,1.477-.323,2.192h-.062a8.273,8.273,0,0,0-2.249-1.389c-1.29-.069-1.74.889-2.927.4a6.422,6.422,0,0,0-2.049-.787c0-1.229.262-2.553.262-3.829a19.1,19.1,0,0,0-.216-2.239c-.188-.61-.643-1.176-.786-1.76a23.962,23.962,0,0,0-1.155-3.721c-.444-1.064-1.22-.8-1.818-1.544-.261-.326-.379-.754-.739-1.05-.461-.379-.942-.6-1.417-.957-.934-.313-1.972-.239-2.865-.556-.953-.338-1.868-.87-2.834-1.127-2.157-.573-2.692-1.2-3.2-3.258-.4-.1-1.083.613-1.556.71-.531.109-.919-.775-1.694-.71-1.734,0-1.691.783-3.127-.556a26.585,26.585,0,0,1-2.6-2.146c-1.814-2.323-1.617-4.184-5.407-4.184-.613,0-4.636-1.166-4.636-1.791.8,0,2.174-1.042,3.081-1.235a15.591,15.591,0,0,0,3.327-1.806c.325-.2,2.166-.546,2.226-.788a5.72,5.72,0,0,0,2.811-1.2,4.783,4.783,0,0,1,2.1-1.119,7.041,7.041,0,0,0,1.487-.278l.254,5.859,1.025.023,1.2-6.593-2.48-8.461a5.159,5.159,0,0,1-.015-1.667,5.808,5.808,0,0,1,.293-1.7,2,2,0,0,0-.077-1.328,5.212,5.212,0,0,0-.909-3.458,10.724,10.724,0,0,1-1.109-3.181c-.332-2.741-4.328-3.066-4.328-5.589,0-.835.8-1.2.739-2.27a11.832,11.832,0,0,0-.724-2.516c-.186-.6.044-1.123-.062-1.714-.181-1.016-1.033-.51-1.648-1.127a11.227,11.227,0,0,0-.878-.927c-.569-.459-2.354-2.024-3.081-1.745-.967.372-.982,3.073-2.634,3.073-.365-.733-1.877,1.472-2.11,1.775-.688.9.308,2,.308,2.825a31.315,31.315,0,0,1-3.32-.046h0l-.27-.44,1.6-3.96-1.124.51-6-4.952-6.388,1.756a2.341,2.341,0,0,1,.478-1.436,8.733,8.733,0,0,0,.385-2.748,14.969,14.969,0,0,1,1.032-2.733c.287-.815-.077-2.35.154-3.335.79-3.364,1.968-6.668,1.968-10.25l.21-2.421.278-2.348-2.287,1.768-1.271.579-.986.336a14.992,14.992,0,0,1-2.788.934,7.387,7.387,0,0,1-2.549.1l-3.594-.17-.637-.015c-2.573,0-5.533.871-7.5-1.185l-.632-.409a9.634,9.634,0,0,0-3.034-.664l-4.467-.216-.015-.016a2.328,2.328,0,0,0-.056-.45l.071-7.409-.893-1.065-2.634-2.918c-.615-.681-.151-2.754-1.047-3.4a15.422,15.422,0,0,1-.092-2.115.224.224,0,0,0,.031-.216l-.015-.015a11.338,11.338,0,0,1-2.8-1.312c-.119-.074.1-2.033-.154-2.486-.159-.585.186-1.327-.416-1.729a5.228,5.228,0,0,0-1.648-.726c-1.421-.35-3.727-.552-4.976-1.328-1.384-.86-3.99-4.038-4.175-5.667-.007-.059-1.595.571-2.049.571l-.169-.648a7.586,7.586,0,0,1-.046-2.532c.114-.71-.32-1.385-.216-1.946l.247-1.328c.136-.736,1.373-3.678.246-3.968a3.1,3.1,0,0,0-3.173,1.575c-.255.37-1.107,2.172-1.448,2.285,0,.052-.028.04-.046.077-.031,0-.023-.008-.031.015-.031,0-.023-.008-.031.015l-2.7-.093c-1.425-.049-.878-.131-.878-1.112,0-1.638.436-2.839-.832-4.061-.482-.774-.139-1.706-.308-2.532-.145-.709-1.368-1.2-1.679-1.945-.457-1.1-1.307-4.693-2.326-5.188-.254-.123-1.073.3-1.248-.185-.265-.734-1.761-1.954-2.511-1.59-1.975.9-3.4,3.109-5.7,1.961-2.367-1.184-4.423-1.83-7.009-.8a5.188,5.188,0,0,0-.555.185c-.234.078.595,1.422.847,1.59.831.555.116.832-.154,1.714-.194.636-.762-.066-.755.525l.031,2.486a16.517,16.517,0,0,1-.185,4.061c0,1.4.216,2.855.138,4.231a30.976,30.976,0,0,1-.847,3.381,16.576,16.576,0,0,0-.138,2.439c-1.988,0-2.514.328-3.512,1.961-.686,1.1-4.965,6.531-5.977,6.531-2.455,0-4.437,5.294-5.807,6.855l-2.557,3.2c-.418.523-2.945.447-3.435.108a11.732,11.732,0,0,0-1.74-1.081c-.385-.14-.473.572-.678.17a3.841,3.841,0,0,1-.478-1.035c-.127-1.123-1.287,1.566-1.032,1.745.568.4.818.309,1.109,1.174.241.716-.546,1.2-1.356,1.2.181-.725.43-1-.416-1-.539,0-1.2-.415-1.633-.031l-3.05,2.687c-.675.594-1.35.216-2.11.216,0-.925,1.587-1.659,1.587-2.517,0-1.3,1.587-.622,1.587-2.347,0-.679.793-1.3.816-2.022a2.516,2.516,0,0,0,.354-1.22,1.6,1.6,0,0,1-.246-.355c-.678-.113-.666-.586-.447-1.081.313-.708.119-.887-.2-1.5-.585-1.12-1.759-1.341-1.849-2.625a11.394,11.394,0,0,1,.123-2.671A8.7,8.7,0,0,0,54.022,117c-.068-.616-.873-1.618-.693-2.162a6.754,6.754,0,0,1,1.309-2.254c.3-.329.909-.884.909-1.359,0-.5-.277-.906-.277-1.436,0-1.251-.291-.726-1.171-1.312a9.022,9.022,0,0,1-1.063-.71c-1.2-1.083-2.195-.21-3.6-.525a4.229,4.229,0,0,1-1.6-.834l-5.807-2.022c-.665-.232-1.394-.045-2.064-.386l-1.849-.942c-.791-.4-1.835.055-2.465-.4-.685-.5-.35-.618-1.279-.386a2.733,2.733,0,0,1-1.941-.294c-.5-.041-.72-.577-1.325-.432-.476.114-.873.633-1.386.633-1.456,0-2.029-.762-3.589.031-.831.422-1.553-.27-2.311-.509l-3.42-1.081a22.688,22.688,0,0,1-3.3-.957c-.47-.25-.729-1-1.217-1.3-.627-.386-1.745-.67-2.141-1.312-.1-.168-.642-1.58-.231-1.683,0-.265.494-.736.585-1.05-.044-.176-1.291.066-1.51.108a1.673,1.673,0,0,1-1.232-.34c-.709-.652-1.779.374-2-.432-.119-.429-.508-.564-.508-.957,0-1.137.156-.867-.816-1.266-.425-.174-.391-.522-.585-.833-.751-1.205-2,1.217-3.3.957-.719-.144-1.385-.756-2.11-.834C.2,90.526.8,87.29,0,87.3H0c1.21-.633,2.189-1.7,3.358-2.285a9.372,9.372,0,0,1,3.974-.834L19.5,82.772c2.722-.314,9.581-.078,10.752-3.3,1.66-2.587,5.173-3.485,8.087-4.107C40.05,75,41.32,73.655,42.9,73.323c1.658-.348,3.508-.04,5.13-.54,1.656-.046,2.907-1.142,4.436-1.5,2.378-.552,3.987-2.635,6.47-3.258.562-.141,1.608-2.285,1.756-2.872.364-1.445,1.594-2.531,2.234-3.814l2.8-2.563c1.521-1.391,3.78-1.8,4.529-3.968.7-2.027,1.371-3.437,1.371-5.713.251-.952.113-1.982.323-2.934a10.829,10.829,0,0,1,.385-1.451,9.6,9.6,0,0,0,.478-1.5l.369-.984c.044-1.43,1.531-3.249,2-4.7,1.159-3.567,5.824-2.026,8.38-1.559.632.115,3.135,1.112,3.374,1.59.6,1.209,1.07,2.492,2.418,3.166,2.628,1.655,8.324.483,10.952-.833,3.246-1.627,4.967-4.91,9.058-4.91a10.418,10.418,0,0,0,2.557-.479c1.47-.245,3.14.232,4.667.232,2.682,0,5.235-.7,7.872-.2a12.446,12.446,0,0,1,5.668,2.61L131.5,38.38c.625.563,1.224,1.22,1.864,1.729.6.479.805,1.146,1.325,1.667l.493.456c1.708.16,3.611,4.565,4.267,5.971l1.879,4.03a8.116,8.116,0,0,1,.724,1.837,20.7,20.7,0,0,1,.4,2.208c-.066.687.217,1.789-.139,2.393-.345.587-.564,1.313-.955,1.946a13.734,13.734,0,0,0-1.833,3.335c-.381,1.245.323,2.548.323,3.767a13.188,13.188,0,0,0,.786,3.366c.714,2.322,2.314,3.943,3.851,5.821,1.606,1.963,6.225,2.988,8.626,2.331l.744-.108c2.054.182,3.764-.338,5.735.664,2.215,1.126,5.608,3.37,8.18,2.455,2.2-.782,3.524-6.906,3.682-8.955,0,.033-.012.044.015.062,0-3.151,3.87-8.074,7.317-6.037a18.25,18.25,0,0,0,5.761,2.208l7.486.865c1.5.31,3.977-.282,5.469-.633a27.632,27.632,0,0,1,9.058-.648c3.334.535,4.909,1.242,7.209,3.551,2.488,1.613,4.92,3.077,8.118,2.748,1.6-.164,3-1.519,4.775-1.791l5.73-.88c3.119-.292,6.846-2.328,9.212-4.308l3.45-2.887c.649-.543,2.654-1.751,2.958-2.362.018-.6.487-1.831,1.109-1.992,1.055-.272,1.1.236,1.879.556.706.29,3.28-1.374,4.375-1.374,2.852,0,3.223,1.78,4.883,3.443a12.175,12.175,0,0,0,2.064,1.93l2.773,1.637A8.56,8.56,0,0,0,273.71,65.9a22.641,22.641,0,0,0,3.512-2.733c1.187-1.389,1.377-2.78,1.926-4.431a22.561,22.561,0,0,0,.77-6.917,21.977,21.977,0,0,1,.138-3.289c.216-1.4,1.06-1.955,1.587-3.119l1.541-2.208.939-.969c2.647-3.7,8.791-2.423,12.785-1.953,1.61.189,5.6.087,7.086-.525,2.67-1.1,1.155-3.472,1.155-5.4.516-2.667,2.111-2.173,3.867-3.736l3.451-3.072c1.489-1.326,5.047-.272,6.608.309,2.632.978,4.311,2.192,6.809,0,2.54-.3,4.025-5.862,5.915-7.5,1.518-1.319,3.089-1.254,4.868-1.7A6.426,6.426,0,0,0,340.5,15.5c1.284-2,1.668-4.872,3.219-6.686.733-.857.588-2.275,1.54-2.964.926-.671,1.8-2.173,2.665-3.042l.308-.324c.037-.007.052-.01.061-.046.069-.017.123-.093.2-.108.591-1.486,4.4-2.074,5.746-2.254,2.987-.4,7.432.859,9.535,2.964,2.36,2.363,3.142,6.107,3.142,9.449a5.048,5.048,0,0,0,1.541,4.138c2.495,2.141,4.9-3.016,6.439-4.246,1.086-.871,1.264-3.21,2.68-3.675.784-.257,1.1.049,1.787.278a8.246,8.246,0,0,0,2.4.2h1.222A25.017,25.017,0,0,0,387.984,6.9a8.7,8.7,0,0,1,4.332-.756c1.988.052,1.917,2.367,2.415,3.781a7.6,7.6,0,0,0,.755,2c.657.954,1.78.371,2.687.454a16.9,16.9,0,0,0,5.147-1.27,13.017,13.017,0,0,1,9.57.121c1.846.648,6.136,2.676,6.974,4.521,1.214,2.356-.145,4.249-.241,6.7-.085,2.163-1.132,4.186-.861,6.366,0,2.51,1.82,5.5,3.593,7.274a12.424,12.424,0,0,0,4.921,2.8c2.457.79,2.945,1.631,4.664,3.352a17.962,17.962,0,0,1,2.2,3.2c.794,1.9,2.871,3.742,4.272,5.232,1.306,1.39,4.863,3.176,6.792,3.176,2.653.771,7.307.207,10.053-.106,1.922-.219,3.645.331,5.509.454a20.184,20.184,0,0,1,4.815.635l2.6.847c1.974.644,4.189.28,6.219.877l4.724,1.391c1.644.484,3.765,2.737,4.77.272l2.566-6.291c2.814-2.818,4.251-6.923,8.74-4.37l5.691,3.236,5.646,3.554c1.164.844,2.852.834,4.151,1.709a9.347,9.347,0,0,0,1.826.954l-.123-.049-.676.819a7.554,7.554,0,0,1-2.46,1.316,6.572,6.572,0,0,0-1.721.771,9.3,9.3,0,0,0-.287,1.27c-.217.75-.561,1.42-.83,2.117-.242.627.241,1.249.241,1.92a2.636,2.636,0,0,1,.423,1.285c0,.538-.6.522-.875.8a13.918,13.918,0,0,0-1.57,4.9c.149.728-.178,1.27.166,1.905A7.409,7.409,0,0,0,506.3,75.5c.007.049.03.068.03.121-.019.005-.026.01-.045.015-.111.445-.981.687-.981,1.361a2.86,2.86,0,0,0,.483,1.709c.82,1.591.349,1.331-1.087,1.331-.757,0-1.44.484-2.249.484,0-.638.1-.9-.453-.136a6.045,6.045,0,0,1-.966,1.119,4.231,4.231,0,0,0-1.585,2.026c-.171.514-.367,1.241-.574.166-.291-1.51-1.287-.685-1.087.363.156.816,1.161,2.087-.045,2.087,0,.235.408.4.181.726-.356.512-.586.052-.347,1.013.182.734-.551.946-1.057.5a5.774,5.774,0,0,1-1.4-2.026h-.03a8.192,8.192,0,0,0,.045,2.283,6.091,6.091,0,0,1,1.555,2.314.815.815,0,0,1,.166.3,1.692,1.692,0,0,1,.181.287h.03c.008.034.012.03.045.03.015.06.106.061.121.121.113.016.11.149.181.167a4.286,4.286,0,0,1-.619,1.5v.031c-.8.2-1.719.02-2.491.272a13.6,13.6,0,0,0-3.593,1.376c-.553.4-.35,3.572-.06,3.645.253,1.014-.011.261-.347,1.27-.22.661-.966,2.243-1.751,2.314-.7.063-.327-.681-.815-.817-.441-.123-.959-.116-1.4-.227-.1-.419.423-.805.423-1.3-.176-.058-.406-.208-.6-.257a1.457,1.457,0,0,0-.211-.212c-.135-.543-1.471-.2-1.585-1a.338.338,0,0,1-.106-.076c-1.285,0-3.318,2.85-3.487,4.038a39.869,39.869,0,0,0-.74,5.6l.09,2.994c.025.841.152,1.376-.83,1.376a1.245,1.245,0,0,0,.106.68c.007.045.024.045.03.091.117.059.03.324.03.423-.188.125-.528,1.088-.815,1.376a15.732,15.732,0,0,0-2.31,1.285c-.466.289-.608,1.161-1.192.968-.5-.165-.56-.726-1.208-.726-.24,0-.5.368-.77.454-1.17.365-1.96-.786-2.974-.786,0,1.761-1.592,1.162-2.717,1.663-.9.4-1.308.5-1.238,1.421.149,1.961.217,1.448-1.177,2.737-1.071.989-.194,2.221-.755,3.72a1.771,1.771,0,0,0,.06,2.42c.775.778,2.055-.076,2.974-.076,0,1.285-.507,1.294-1.373,2.162l-1.48,1.482c-.338.338,1.309,1.886,1.57,2.435.533,1.12-.01,2.318.664,3.448,0,.794.678,1.311.513,2.026a4.834,4.834,0,0,0-.3,1.24,28.229,28.229,0,0,0,.015,5.111l.2.751v.887a5.628,5.628,0,0,1,.468,1.905c1.107,0,7.127-1.033,7.487-.469.773,1.213.38,4.918-.121,6.215.177.532,1.092,4.4,1.4,4.506,0,.284-1.615.915-1.962,1.089-.841.421-1.515-.045-2.385-.045-1.012,0-2.521,2.932-2.521,3.886.977.326,1.275,1.119,2.521,1.119.01.029.005,0,.015.03l.347.771c0,.284.283.649.211.907-.063.226-.362.4-.362.6,0,.239.583.878.709,1.21a2.776,2.776,0,0,0,1.978,1.724,9.247,9.247,0,0,1,.287,1.875c.627.157,2.021,1.738,2.355,1.195.844-1.374,1.781.264,1.781,1.21,0,1.162-.628,1.18.649,1.18a2.046,2.046,0,0,1,.015.408c1.653,0,2.007-.19,3.411.922.281.223.886-.062.951.242l.423,1.981,1.011,2.072c.068,0-1.7,1-2.008,1.134-.544.243-2.284.141-2.37.7a9.894,9.894,0,0,0-.106,1.406c0,1.07.018.4-.845.786a7.131,7.131,0,0,0,.272,2.117,1.7,1.7,0,0,1,.121,1.044c-.273.84.147.51.181,1.028a2.743,2.743,0,0,1-.045.847c-.892,2.378,2.231.758,1.781,2.646-.35,1.467-.133,1.738.453,3.085.359.827-1,1.606-1.072,2.51-.047.621-.33.832-.921,1.013a3.837,3.837,0,0,1-1.992.03c-.613-.131-1.294-.8-1.781-.892-.456,1.372-2.335,1.85-1.162,3.508.68.962,3.639,2.1,4.762,1.785a7.848,7.848,0,0,1,1,.5,5.137,5.137,0,0,0,1,.318,10.474,10.474,0,0,0,2.068.136c.292,0,.206.074.242.355a2.388,2.388,0,0,0,.1.544c.838,2.106,3.443,3.844,3.079,6.208-.054.35-.036,1.193-.294,1.421l-3.23,4.234-2.657-2.057-1.389,1.769,2.536,2.026-2.581,3.115c-1.82,1.82.457,3.959,1.736,5.141.033.03.475.426.347.469,0,.454-.891,1.248-1.177,1.588-.43.511-.7,1.754-1.54,1.754a1.37,1.37,0,0,0-1.041.59c-.037,0-.1,0-.106-.03h-.03c-.008-.034-.012-.03-.045-.03a.063.063,0,0,0-.045-.045,9.123,9.123,0,0,0-1.766-2.087c-.008-.033-.012-.03-.045-.03-.015-.031-.052-.034-.06-.06a3.662,3.662,0,0,0-.936.091c-1.388.231-3.96.673-4.649,1.936-.329.6-.311.208-.6.59-.2.267.115,1.153-.3,1.361-.458.228-1.227-1.718-1.253-1.724-.164.495-1.991.1-2.31.181,0,.029-.009.037.015.045a2.681,2.681,0,0,0,.558,1.618,4.468,4.468,0,0,1,1.434,1.421c.583.784,3.87.257,4.815.257a3.964,3.964,0,0,0,2.974-.711,7.973,7.973,0,0,1,2.944.272,8.078,8.078,0,0,1,.2,1.452,6.8,6.8,0,0,1,1.162,1.406c.642.788.249,1.349.619,1.8.538.656.512-.272,1.313-.227.5.028,1.08.257,1.57.257,1.059,0,.734-.433,1.721.151,1.347.8.8-1.08,2.023-.635.5.181.525.606,1.117.771a1.094,1.094,0,0,1,.694,1.1c.029.522.971.363,1.373.363a4.55,4.55,0,0,1-.709,2.238c-.176.191-.868.227-.875.318-.038.46.347.874.317,1.406a5.479,5.479,0,0,0,.091,2.344c.26.624.526,1.8.03,2.369v.782c0,.883,0,1.682.075,2.556.057.646-.254,2.014.226,2.5a2.748,2.748,0,0,1,.861,1.21c.119.623-.017,1.416.166,2.011.093.3.557.713.588.938a.216.216,0,0,1,.06.045l-.03.166c0,.882,1.064.855,1.63.968a2.759,2.759,0,0,0,.5.6c.117.588-.542.834-.392,1.467a14.644,14.644,0,0,1,.483,1.512c-.023.308-.339.729-.226,1.059.1.286.912-.171,1.162-.045,1.1.551.749.529,2.038.529.636,0,2.506-.524,1.978.786-.548,1.359.545,1.849.242,3.07-1.516.216-1.968,1.923-1.721,3.16a14.339,14.339,0,0,1,1.026,1.663c.252.614-.3,1.483-.09,1.86.479.863-.179,2,.287,3.055.315.711-.106,1.338.423,2.072.155.216,1.2.431,1.208.454h.045c0,.925-1.733,2.673-2.249,3.523a1.779,1.779,0,0,0-.543,1.921c.151.785-.3.96-.393,1.527-.386.1-.826,1.093-.951,1.422-.256.675.221.98.513,1.5.487.863,1.752,1.5,1.54,2.54-.238,1.172.845.819.845,1.482a.225.225,0,0,0-.09.181c.829.276,2.725,1.722,2.656,2.783.085.428.429.051.574.287.168.274-.136.607.408.439.731-.227.894.882,1.238,1.255.711.771,2.381-.605,1.57,1.21-.417.934.166,1.351.166,2.238,0,.853-1.543,2.536-1.947,3.4-.338.724-.16,1.512-.422,2.117-.352.812-.906-.233-.906,1.149a1.488,1.488,0,0,0,1.419,1.542c1.131-.675,1.008.691,1.283,1.588.165.536,2.617-.486,3.019-.56.709-.129,1.312-.617,2.068-.771l3.623-.741c.357-.073,1.068-.76,1.177-.65.24.24.958.788,1.268.711.027-.109.121-.174.121-.3l.015-.015h.03c.047.19.922.763,1.117.938a1.323,1.323,0,0,0,2.158-.212c.764-1.165,1.755-.485,2.778-1.134.125-.08.368-.528.453-.439.757.8.995.17,1.419-.68.078-.157.437-1.044.559-.983.4.2.493.549.951.091,1.189-1.191,3.3-.8,3.849-2.283a8.275,8.275,0,0,0,.543-2.51c.36,0,1.429.628,1.585.318l.785-1.558c2.456.489-1.992,5.7-1.6,6.094,0,.254.076.485.076.756a13.174,13.174,0,0,0-1.706,1.769c-.525.613-.907,1.014.241,1.3v.045c-.91.3-.758,1.939-1.253,2.6-.76,1.017-1.373,2.552-2.385,3.312a13.638,13.638,0,0,1-2.672,1.951c-.775.31-.552.3-.453,1.119,0,.414.332.589.483.892.432.108-1.225.7-1.344.756-.951.451-1.565-.043-2.279.136a3.359,3.359,0,0,1-1.434,2.465c-1.282,1.087-1.845.973-1.766,2.737l.091,2.026c-.484.242-1.09.841-1.646,1.119a4.441,4.441,0,0,0,.77,2.737c0,1.495-1.13,2.356-1.389,3.7-.024.127.035.8-.045.832l-4.6,3.039c-1.728,1.141-2.27,2.812-3.819,3.826a11.5,11.5,0,0,1-4.317,1.558,8.718,8.718,0,0,0-2.355.151c-.945.086-2.129.726-3,.726-.008.023,0,.015-.03.015,0,.334.226.622.226,1,.125.042-.252.218-.3.242-.2.095-.451.2-.649.318l-1.434.862c-.555.334-2.222,1.679-2.793,1.679,0-.541-1.293-1.584-1.736-1.89-1.241-.859-1.8-1.644-3.291-.665-.875.573-1.125-.209-.438.892l1.63,2.611a7.419,7.419,0,0,0,.77,2.46c.525.962.623,3.187.83,4.325a18.192,18.192,0,0,0,.559,2.087c.281.918.944,1.345,1.389,2.087,1.591,1.4,4.332,2.792,4.332,5.111a16.8,16.8,0,0,1-.755,4.022c-.287,1.22-1.123,2.8-.5,4.053,1.526,2.333,3.385,3.055,2.415,6.215a20.4,20.4,0,0,0-1.011,3.206c-.243,1.589.864,2.17,1.781,3.251,1.412,1.035,2.228,2.723,3.449,3.947l.4.424h0L502.04,398a5.6,5.6,0,0,1-1.223,3.6,10.944,10.944,0,0,0-1.993,3.932c-.142.824.01,1.712-.136,2.54-.336,1.689-3.671,4.6-5.1,5.6-1.484,1.035-3.14,4.967-3.14,6.759a23.791,23.791,0,0,0,.694,4.068c.2,1.071.591,3.269,1.283,4.083l1.751,2.057c.676.794.657,2.652.559,3.7-.15,1.963-.508,3.956,0,5.882a21.057,21.057,0,0,1,.785,5.988,19.667,19.667,0,0,1,1.026,2.843c.245.8.979,1.5,1.283,2.3.826,2.18-.435,3.487-1.344,5.308a16.4,16.4,0,0,0-1.67,3.383c-.227,1.607-.727,3.586-.447,5.246l.955,5.666c0,2.9,5.391,1.69,6.87,4.261.855,1.485.885,2.7,1.34,4.261l1.4,4.817c.182,1.883.813,4.583.293,6.515a13.833,13.833,0,0,1-1.494,3.52c-.66,1.145-1.188,1.828-1.078,3.258a33.815,33.815,0,0,1,2.249,6.9c.285,2.2-.933,4.593-2.064,6.376Z" transform="translate(8.245 2.007)" fill="rgba(254,254,254,0)" stroke="#417505" stroke-miterlimit="10" stroke-width="4"/>
</svg>
